<svg xmlns="http://www.w3.org/2000/svg" viewBox="0 0 100 205">
  <defs>
    <style>
      .cls-1 {
        fill: #fff;
      }

      .cls-2, .cls-3 {
        stroke: none;
      }

      .cls-3 {
        fill: #707070;
      }
    </style>
  </defs>
  <g id="Two_element" transform="translate(-484 -119)">
    <g id="Union_1" data-name="Union 1" class="cls-1" transform="translate(484 119)">
      <path class="cls-2" d="M 95.99989318847656 201.0001831054688 L 4.000009059906006 201.0001831054688 L 4.000009059906006 109.0003051757813 L 95.99989318847656 109.0003051757813 L 95.99989318847656 201.0001831054688 Z M 95.99989318847656 95.99989318847656 L 4.000009059906006 95.99989318847656 L 4.000009059906006 4.000010967254639 L 95.99989318847656 4.000010967254639 L 95.99989318847656 95.99989318847656 Z"/>
      <path class="cls-3" d="M 91.99991607666016 197.0001983642578 L 91.99991607666016 113.0002975463867 L 8.000017166137695 113.0002975463867 L 8.000017166137695 197.0001983642578 L 91.99991607666016 197.0001983642578 M 91.99991607666016 91.99990081787109 L 91.99991607666016 7.999999046325684 L 8.000017166137695 7.999999046325684 L 8.000017166137695 91.99990081787109 L 91.99991607666016 91.99990081787109 M 99.99991607666016 205.0001983642578 L 1.707560295471922e-05 205.0001983642578 L 1.707560295471922e-05 105.0002975463867 L 99.99991607666016 105.0002975463867 L 99.99991607666016 205.0001983642578 Z M 99.99991607666016 99.99990081787109 L 1.707560295471922e-05 99.99990081787109 L 1.707560295471922e-05 -8.178710686479462e-07 L 99.99991607666016 -8.178710686479462e-07 L 99.99991607666016 99.99990081787109 Z"/>
    </g>
  </g>
</svg>
