<svg xmlns="http://www.w3.org/2000/svg" viewBox="0 0 200 305">
  <defs>
    <style>
      .cls-1 {
        fill: #fff;
      }

      .cls-2, .cls-3 {
        stroke: none;
      }

      .cls-3 {
        fill: #707070;
      }
    </style>
  </defs>
  <g id="Two_element_big" transform="translate(-399 -126)">
    <g id="Union_2" data-name="Union 2" class="cls-1" transform="translate(399 126)">
      <path class="cls-2" d="M 195.9998168945313 301.0001525878906 L 4.000025749206543 301.0001525878906 L 4.000025749206543 209.0001831054688 L 195.9998168945313 209.0001831054688 L 195.9998168945313 301.0001525878906 Z M 195.9998168945313 195.9998168945313 L 4.000025749206543 195.9998168945313 L 4.000025749206543 4.000019550323486 L 195.9998168945313 4.000019550323486 L 195.9998168945313 195.9998168945313 Z"/>
      <path class="cls-3" d="M 191.9998168945313 297.0000915527344 L 191.9998168945313 213.0001983642578 L 7.999991893768311 213.0001983642578 L 7.999991893768311 297.0000915527344 L 191.9998168945313 297.0000915527344 M 191.9998168945313 191.9997863769531 L 191.9998168945313 8.000015258789063 L 7.999991893768311 8.000015258789063 L 7.999991893768311 191.9997863769531 L 191.9998168945313 191.9997863769531 M 199.9998168945313 305.0000915527344 L -8.273037565231789e-06 305.0000915527344 L -8.273037565231789e-06 205.0001983642578 L 199.9998168945313 205.0001983642578 L 199.9998168945313 305.0000915527344 Z M 199.9998168945313 199.9997863769531 L -8.273037565231789e-06 199.9997863769531 L -8.273037565231789e-06 1.558061012474354e-05 L 199.9998168945313 1.558061012474354e-05 L 199.9998168945313 199.9997863769531 Z"/>
    </g>
  </g>
</svg>
